<svg width="903" height="742" viewBox="0 0 903 742" fill="none" xmlns="http://www.w3.org/2000/svg">
<path fill-rule="evenodd" clip-rule="evenodd" d="M1247.42 711.014C1264.94 642.613 1270.77 571.731 1264.64 501.381C1132.63 314.127 802.593 -10.6934 654.385 -81.7349C624.759 -82.5589 595.11 -81.4615 565.625 -78.4496C754.011 41.0479 1041 348.621 1247.42 711.014ZM1230.8 772.077C1211.06 824.909 1184.34 874.879 1151.35 920.662V920.457C1053.16 540.581 585.496 73.0742 420.825 -44.1104C449.252 -54.3988 478.43 -62.495 508.1 -68.3273C825.503 187.796 1030.11 385.635 1230.8 772.077ZM1126.72 947.35C1092.21 990.633 1052.14 1029.17 1007.55 1061.95C839.143 532.302 440.796 185.641 221.725 70.0187C243.191 51.0195 266.096 33.7169 290.236 18.2662C648.995 215.214 830.733 446.458 1126.72 947.35ZM808.666 1160.98C862.823 1144.33 914.886 1121.47 963.825 1092.85C775.462 613.056 456.127 213.744 183.728 104.86C167.946 121.12 153.188 137.793 140.275 153.642C479.082 338.889 703.109 688.802 808.666 1162.21V1160.98ZM622.189 1185C670.045 1184.5 717.756 1179.62 764.725 1170.43C627.521 716.154 531.335 464.802 108.444 196.011C88.1984 227.156 70.1081 259.651 54.3 293.269C431.252 494.555 631.828 976.738 621.368 1185H622.189ZM504.973 1170.16C527.984 1174.97 551.259 1178.4 574.675 1180.44C531.624 789.747 267.167 498.987 34.0755 346.41C25.6577 370.966 18.8103 396.035 13.575 421.465C129.198 520.784 387.3 783.784 505.588 1170.16H504.973ZM1248.75 391.397L1248.9 391.986V391.576L1248.75 391.397ZM1248.75 391.397C1236.7 344.082 1219.03 298.36 1196.12 255.197C1120.25 108.784 989.203 -1.80859 831.619 -52.4226C796.405 -63.3519 760.436 -71.714 724 -77.4424C901.842 18.287 1137.56 258.468 1248.75 391.397ZM457.025 1157.65C456.722 1157.58 456.419 1157.5 456.116 1157.43C335.293 838.279 171.416 658.366 46.361 521.074L46.3525 521.065C31.5756 504.842 17.3407 489.214 3.78297 474.022C0.568709 505.754 -0.5993 537.659 0.286723 569.541C117.093 678.824 237.602 859.386 333.638 1107.12C371.84 1129.67 413.088 1146.61 456.116 1157.43L456.202 1157.65H457.025ZM262.45 1066.5C230.286 1042.78 200.116 1016.45 172.243 987.757V988.582C119.285 930.81 76.8801 864.097 46.9781 791.509C28.0975 745.289 15.3453 696.773 9.04998 647.209C29.8952 682.076 58.5373 725.879 89.3873 773.058C155.023 873.435 230.652 989.096 262.45 1066.5Z" fill="url(#paint0_radial_15381_41125)"/>
<path fill-rule="evenodd" clip-rule="evenodd" d="M1247.42 711.014C1264.94 642.613 1270.77 571.731 1264.64 501.381C1132.63 314.127 802.593 -10.6934 654.385 -81.7349C624.759 -82.5589 595.11 -81.4615 565.625 -78.4496C754.011 41.0479 1041 348.621 1247.42 711.014ZM1230.8 772.077C1211.06 824.909 1184.34 874.879 1151.35 920.662V920.457C1053.16 540.581 585.496 73.0742 420.825 -44.1104C449.252 -54.3988 478.43 -62.495 508.1 -68.3273C825.503 187.796 1030.11 385.635 1230.8 772.077ZM1126.72 947.35C1092.21 990.633 1052.14 1029.17 1007.55 1061.95C839.143 532.302 440.796 185.641 221.725 70.0187C243.191 51.0195 266.096 33.7169 290.236 18.2662C648.995 215.214 830.733 446.458 1126.72 947.35ZM808.666 1160.98C862.823 1144.33 914.886 1121.47 963.825 1092.85C775.462 613.056 456.127 213.744 183.728 104.86C167.946 121.12 153.188 137.793 140.275 153.642C479.082 338.889 703.109 688.802 808.666 1162.21V1160.98ZM622.189 1185C670.045 1184.5 717.756 1179.62 764.725 1170.43C627.521 716.154 531.335 464.802 108.444 196.011C88.1984 227.156 70.1081 259.651 54.3 293.269C431.252 494.555 631.828 976.738 621.368 1185H622.189ZM504.973 1170.16C527.984 1174.97 551.259 1178.4 574.675 1180.44C531.624 789.747 267.167 498.987 34.0755 346.41C25.6577 370.966 18.8103 396.035 13.575 421.465C129.198 520.784 387.3 783.784 505.588 1170.16H504.973ZM1248.75 391.397L1248.9 391.986V391.576L1248.75 391.397ZM1248.75 391.397C1236.7 344.082 1219.03 298.36 1196.12 255.197C1120.25 108.784 989.203 -1.80859 831.619 -52.4226C796.405 -63.3519 760.436 -71.714 724 -77.4424C901.842 18.287 1137.56 258.468 1248.75 391.397ZM457.025 1157.65C456.722 1157.58 456.419 1157.5 456.116 1157.43C335.293 838.279 171.416 658.366 46.361 521.074L46.3525 521.065C31.5756 504.842 17.3407 489.214 3.78297 474.022C0.568709 505.754 -0.5993 537.659 0.286723 569.541C117.093 678.824 237.602 859.386 333.638 1107.12C371.84 1129.67 413.088 1146.61 456.116 1157.43L456.202 1157.65H457.025ZM262.45 1066.5C230.286 1042.78 200.116 1016.45 172.243 987.757V988.582C119.285 930.81 76.8801 864.097 46.9781 791.509C28.0975 745.289 15.3453 696.773 9.04998 647.209C29.8952 682.076 58.5373 725.879 89.3873 773.058C155.023 873.435 230.652 989.096 262.45 1066.5Z" fill="url(#paint1_radial_15381_41125)"/>
<defs>
<radialGradient id="paint0_radial_15381_41125" cx="0" cy="0" r="1" gradientUnits="userSpaceOnUse" gradientTransform="translate(238.5 91.5) rotate(39.9517) scale(1204.79 4302.59)">
<stop stop-color="#071739"/>
<stop offset="0.994792" stop-color="#153EAE"/>
</radialGradient>
<radialGradient id="paint1_radial_15381_41125" cx="0" cy="0" r="1" gradientUnits="userSpaceOnUse" gradientTransform="translate(76.5 528) rotate(10.3843) scale(515.951 1842.58)">
<stop stop-color="#071739"/>
<stop offset="0.994792" stop-color="#071739" stop-opacity="0"/>
</radialGradient>
</defs>
</svg>
