<?xml version="1.0" encoding="UTF-8"?>
<svg version="1.1" viewBox="0 0 816 956" width="1280" height="1280" xmlns="http://www.w3.org/2000/svg">
<path transform="translate(412,24)" d="m0 0h8l6 1h32l4-1 1 4-1 2 4-1h11l4-1 2 1-1 5 4-2 3 1 4-1 2 1v4l2 1 1-2h7l2 1 1 3 6 1 10 6 7 5 8 4 5 3 39 39-1 3 9 9 4 8v4l8 8v9l4 2 1 7h2l2 7-1 4 4 2 1 6-1 4 4 2 1 2 4 1-4-9v-7l5 3 11 3 10 5 10 3 22 11 8 6 9 6v2l4 2 13 13 12 19 5 12 6 21 2 16 2 8 1 16v28l-1 1h-70l-1-1-1-30-3-10-2-11-4-11-6-11-7-10-9-9-1-12-3-12-2-15-2-4-2-12-1-2-5-1 3 9v14l-1 3h2v-2l3 1v29l3 2 1 3v32h-81l-2-1-3-8v-32l-4-3v-16l-4-4v-13l-4-3-1-6 1-2-4-1-5-2 7 22 1 10-2 2h-5l-1-1-52-2-3-1h-16l-1-1-89-1v2l-95 3-25 3-15 2-25 4-19 5-13 5-19 10-6 5-5 2-4 6-7 7-5 7-3 7-3 11-2 2-1 7v8l-1 6h-2v38l2 5 3 17 5 14 5 9 6 8 8 8 11 6 1 3v64l-2 5-2 1-6-3-10-2-7-3-24-11-10-6-5-4v-2l-6-2-6-5v-2l-3-1-8-10-9-14-6-12-6-16-4-13-2-15-2-11v-44l1-11 2-3 1-16 3-8 2-12 7-19 9-17 12-16 6-7 17-13 19-10 15-7 11-4 11-3 6-2 10-2 6-2 11-1 14-3 15-1 10-3 22-1 16-3 47-1 8-1 2-1 31-1h121l18 1 17 3 10 8-5-11-29-29-5-2-11-6-5-2-4-3h-7l-7-4h-72l1 3-4 1h-12v3l-9 4-9 5-7 3-4 5-7 6-3 4h-2l-1 3-3 3h-32l-6-1-2 4-10 1h-29l-3-1-2 4-3 1h-7l-1-1 1-9 1-4h-2l2-5 5-9 5-5h2l-1-4 8-9 1-4 5-6 3-7 3-1 2-4 13-13 8-4 6-5 5-2 7-6 5-2 11-6 5-2 8-4 3-2h9l2-4h9l3-4h21l3-4h41zm131 38m1 1m1 1m3 2m1 1m-283 5m-1 1m-1 1m-2 2m-4 4m-9 9m323 2m1 1m-328 1 1 2 1-2zm329 0m2 2m1 1m1 1v2l2-1zm-336 2m344 10m-240 1m241 0m3 5 1 4 2 1-2-5zm-96 11m104 2 1 2zm-376 1m-1 1m378 0m1 1m-99 2v2l2-1zm100 0m-383 3m286 1m1 1 1 2zm97 2 1 2zm1 2m1 1 1 3v-3zm2 4 1 3zm1 3m4 11 1 2z" fill="#000"/>
<path transform="translate(37,592)" d="m0 0h73l1 1 1 42 1 16 5 17 5 12 8 10 11 11 20 10 10 3 20 4 15 2 18 3 28 2 7 2 112 2h44l41-1 56-1 15-3 4 1-1 10-2 3-1 11 3-1 3-8 2-4 1-12 3-1v-9l4-12 1-14 3-1v-22l4-1 83 1 1 3-1 7-3 2-1 30-3 1v15l-1 8-3 1-1 11-3 2v10l-2 5-3 1 1 1-1 9h-4l1 7-4 3v7l-1 3h-2l-3 9-4 8-8 15-6 8-3 5-4 5h-2l-5 10-11 12-4 2-1 3-5 4-4 1-11 10-6 3-6 5-5 2-9 5-16 8-8 2-6-1-3 4h-13l-3 4h-11l-11 1-2 3h-62l-3-3-25-1-3-3-16-1-3-3-9-1-3-3-9-1-5-3-19-9-11-10-6-3-12-11-6-6v-2l-4-2-7-8-1-4-6-6-2-6-6-7-8-16-1-12 1-1h42l3 2 7 1 46 1 20 20v2l4 2 4 3 5 2v2l7 1 4 4 7-1 2 5 14-1 3 4h49l2 1 1-5h14l2-3 9-1 4-3 22-11 28-28 2-6 2-4-5 3-4 4-6 1-30 1-3 1-135 1-1-2-65-1-33-2-4-1-25-2-31-5-19-4-15-4-12-4-19-8-14-8-13-10-7-7-11-15-8-13-6-14-6-18-2-14-2-12v-58zm568 193 1 2z" fill="#FEFEFE"/>
<path transform="translate(257,433)" d="m0 0h11l17 2 221 1 30 1 25 2 31 1 16 1 9 2 17 2 6 2 14 2 25 9 16 8 9 6 9 7 18 18 8 13 8 17 4 11 3 15 2 13 1 22 1 1 1 23-1 11-1 1-1 24-1 9-2 4-2 14-2 2-1 12-3 4-3 7-8 16-8 12-6 8-9 9-13 10-9 5-8 4-20 8-18 6-7 2-7 1-3 2-9 1-1-4 3-5 3-10 4-13 5-17 2-14 2-3 1-8 5-3 12-6 8-8 10-15 4-8 2-12 2-5 2-19 2-5v-43l-3-7-1-10-3-7-3-9-6-12-11-11-18-10-17-7-15-4-21-3-5-1-23-1-75-2-2-1-222-1-2-1v-65z" fill="#FEFEFE"/>
<path transform="translate(257,225)" d="m0 0h18v13l-4 3v14l-4 2v14l-4 2v14l-4 2v21l-4 3v20l-3 8-1 27-3 15-1 23v121l1 15v18h2l1 2v33l3 9 1 2v24l4 3v21l4 4v16l4 3-1 13 4-2 1 1v16h4v9l-5 5h-8l-2-2-11-2h-32l-2-5-7 1h-19l-4-4-1-6-3-2v-17l-3-2-1-3v-15l-4-3v-11l-1-16-3-6-1-30-3-10-1-70v-88l1-62 3-6 1-30 4-9v-15l4-9v-16l4-3v-13l4-3v-14l4-2-1-8 5-1 9-2 4-2 13-1 7-3 21-1 9-2z" fill="#FEFEFE"/>
</svg>
